<?xml version="1.0" standalone="no"?>
<!DOCTYPE svg PUBLIC "-//W3C//DTD SVG 20010904//EN"
 "http://www.w3.org/TR/2001/REC-SVG-20010904/DTD/svg10.dtd">
<svg version="1.0" xmlns="http://www.w3.org/2000/svg"
 width="512.000000pt" height="512.000000pt" viewBox="0 0 512.000000 512.000000"
 preserveAspectRatio="xMidYMid meet">
<metadata>
Created by potrace 1.14, written by Peter Selinger 2001-2017
</metadata>
<g transform="translate(0.000000,512.000000) scale(0.100000,-0.100000)"
fill="#000000" stroke="none">
<path d="M2032 5035 c-13 -9 -37 -47 -53 -83 -48 -105 -52 -112 -62 -112 -5 0
-60 23 -122 50 -118 52 -148 58 -178 36 -10 -8 -54 -94 -98 -192 -44 -99 -86
-192 -94 -209 -7 -16 -97 -217 -200 -445 -102 -228 -189 -418 -193 -422 -4 -3
-68 -8 -143 -10 -129 -3 -139 -5 -202 -36 -80 -40 -147 -111 -178 -190 l-23
-57 0 -1540 -1 -1540 26 -56 c31 -66 93 -120 164 -143 45 -15 206 -16 1750
-14 l1700 3 41 22 c66 36 101 70 131 131 l28 56 0 468 0 468 131 0 c117 0 132
2 152 20 12 12 23 27 23 35 6 63 4 885 -2 902 -14 39 -54 49 -181 48 -75 0
-118 3 -119 10 -1 5 -2 154 -3 330 l-2 321 -27 56 c-31 64 -71 102 -135 130
-52 23 -85 27 -257 27 l-130 1 -1 133 c-2 108 -6 142 -23 188 -26 67 -86 139
-147 175 l-43 25 23 52 c13 29 63 140 111 247 48 107 96 213 106 234 24 50 24
88 2 114 -10 12 -70 44 -133 72 -63 29 -239 107 -390 175 -151 68 -365 163
-475 213 -599 269 -700 313 -724 318 -15 3 -35 -2 -49 -11z m403 -312 c94 -42
199 -89 235 -105 36 -17 106 -48 155 -70 50 -22 178 -80 285 -128 107 -48 269
-121 360 -161 91 -40 166 -74 168 -75 4 -3 -53 -134 -142 -329 -18 -38 -101
-224 -186 -412 l-153 -343 -78 0 -78 0 31 68 c17 37 46 100 64 140 19 41 34
75 34 77 0 2 15 36 34 77 107 231 146 325 146 350 0 27 -15 45 -77 88 -75 53
-103 140 -75 237 25 89 30 86 -329 248 -173 78 -327 144 -344 147 -30 6 -55
-14 -114 -92 -14 -18 -45 -42 -69 -52 -44 -20 -74 -20 -187 -3 -31 5 -44 2
-60 -12 -11 -11 -146 -301 -300 -646 l-280 -626 -77 -1 c-43 0 -78 1 -78 3 0
2 55 126 140 312 10 22 46 103 80 180 34 77 72 163 85 190 12 28 32 73 45 100
12 28 44 97 70 155 58 127 76 167 130 290 23 52 54 120 67 150 14 30 33 73 43
95 25 56 66 149 102 227 l31 66 76 -35 c42 -19 153 -68 246 -110z m-622 -12
l47 -20 -14 -33 c-24 -55 -206 -461 -221 -494 -8 -16 -28 -61 -45 -99 -17 -38
-37 -83 -45 -99 -8 -17 -75 -168 -150 -336 -75 -168 -159 -356 -187 -417 l-51
-113 -93 0 c-52 0 -94 2 -94 4 0 4 251 565 311 694 16 35 29 65 29 67 0 2 20
46 45 99 25 53 45 98 45 100 0 2 66 150 146 328 80 177 150 333 155 345 9 25
0 27 122 -26z m1127 -547 l55 -25 0 -82 c0 -98 28 -168 95 -241 l43 -46 -71
-158 c-40 -86 -107 -236 -150 -332 l-79 -175 -144 -3 -144 -2 -24 55 c-88 204
-339 276 -521 150 -48 -33 -105 -108 -124 -162 l-13 -38 -102 -5 c-57 -3 -105
-1 -108 3 -5 8 9 38 197 457 55 124 144 322 197 440 l96 215 82 0 c71 0 89 4
145 32 36 18 82 50 103 71 l38 39 187 -84 c103 -46 212 -95 242 -109z m-1989
-696 c-5 -13 -23 -54 -41 -93 -18 -38 -50 -110 -72 -160 -22 -49 -43 -94 -48
-99 -12 -13 -63 10 -93 42 -84 88 -70 223 30 298 39 30 46 32 137 33 l96 2 -9
-23z m2637 -71 c26 -39 27 -46 27 -166 l0 -126 -144 -3 c-113 -2 -142 0 -138
10 17 41 158 352 163 359 9 14 62 -29 92 -74z m-1286 -214 c17 -10 42 -33 56
-50 l25 -33 -177 0 c-97 0 -176 4 -176 8 0 13 42 57 71 76 35 22 107 34 142
25 16 -5 42 -16 59 -26z m116 -240 l1663 -2 34 -21 c18 -11 38 -35 44 -52 7
-20 11 -142 11 -337 l0 -306 -223 -1 c-122 -1 -238 -4 -257 -8 -180 -34 -324
-156 -385 -326 -24 -65 -27 -86 -28 -170 -1 -228 161 -432 384 -485 47 -11
123 -15 287 -15 l222 0 0 -450 c0 -498 1 -494 -63 -526 -30 -16 -158 -17
-1687 -16 -910 0 -1668 1 -1684 1 -19 1 -40 13 -62 37 l-34 35 0 1349 0 1349
57 -27 58 -27 1663 -2z m2060 -1220 l-3 -348 -350 0 c-192 0 -372 3 -398 7
-112 16 -211 90 -264 197 -24 48 -28 68 -28 141 1 70 5 95 26 140 47 101 126
169 228 196 32 9 157 13 419 13 l372 1 -2 -347z"/>
<path d="M3680 1919 c-109 -49 -158 -173 -111 -280 46 -103 154 -155 258 -124
116 35 180 148 150 266 -11 45 -66 113 -111 136 -47 25 -133 26 -186 2z m133
-157 c23 -20 22 -57 -3 -82 -24 -24 -48 -25 -78 -4 -22 15 -30 57 -14 80 22
33 60 35 95 6z"/>
</g>
</svg>
